<svg id="レイヤー_1" data-name="レイヤー 1" xmlns="http://www.w3.org/2000/svg" viewBox="0 0 1000 300"><title>title</title><path d="M207.26,179.7a4.21,4.21,0,0,1,4.3-2.9,11,11,0,0,1,1.8.2c2.1.6,3.7,2.1,3.7,4.1a4,4,0,0,1-.3,1.5L191,251.4c-1.3,3.4-3.7,4.5-6.7,4.5s-5.5-1.1-6.8-4.6l-25.7-68.5a4.27,4.27,0,0,1,3.4-5.8,5.66,5.66,0,0,1,1.8-.3,4.29,4.29,0,0,1,4.3,2.9l19.5,54.9c1.3,3.7,2.4,8.3,3.5,12.3,1.1-4.1,2.3-8.6,3.6-12.4Z"/><path d="M276.45,227.5c0,17.4-9.6,29.4-25.2,29.4-16.5,0-26.1-11.6-26.1-29.4,0-17.3,9.7-29,25.9-29C267.05,198.5,276.45,210.1,276.45,227.5Zm-42.1.3c0,12.7,6,21.4,16.3,21.4,10.9,0,16.6-8.5,16.6-21.8,0-12.6-5.7-21.2-15.9-21.2C240.55,206.2,234.35,214.5,234.35,227.8Z"/><path d="M289.45,203.2c0-2.6,1.9-3.9,4.7-3.9,2.5,0,4.5,1.3,4.5,3.9v2.2a43.22,43.22,0,0,1-.6,4.7,18.75,18.75,0,0,1,17.5-11.4,17.52,17.52,0,0,1,4,.5,3.3,3.3,0,0,1,3.2,3.6,11.14,11.14,0,0,1-.2,1.7c-.4,2.1-1.8,3.9-3.9,3.9a2.77,2.77,0,0,1-.9-.1,20.15,20.15,0,0,0-4.8-.6c-4.3.1-7.6,2.3-10.1,5.5a17.94,17.94,0,0,0-4.2,11.1v27.6c0,2.7-2,4-4.5,4-2.8,0-4.7-1.3-4.7-4Z"/><path d="M337.15,187.8c0-2.6,1.7-4,4.5-4,2.6,0,4.5,1.4,4.5,4v12.1H359c2.5,0,3.7,1.6,3.7,4s-1.3,3.9-3.7,3.9h-12.8v33.5c0,4.9,2.1,7,5.8,7a10.81,10.81,0,0,0,5.9-1.7,4.07,4.07,0,0,1,1.8-.5,3.71,3.71,0,0,1,3.3,2.6,5.7,5.7,0,0,1,.4,2.2,3.92,3.92,0,0,1-2.1,3.6,20.71,20.71,0,0,1-9.9,2.2c-8.2,0-14.2-4.1-14.2-14.6V207.8h-7.8c-2.4,0-3.5-1.6-3.5-3.9s1.1-4,3.6-4h7.7Z"/><path d="M405.35,215.6c0-6.6-3.6-9.5-11.5-9.5-7.3,0-10.9,2.8-12.6,7.4a3.83,3.83,0,0,1-3.9,2.6,5.87,5.87,0,0,1-2.3-.4c-1.9-.6-3.3-2-3.3-3.8a5,5,0,0,1,.2-1.2,17.84,17.84,0,0,1,5.9-7.8c3.5-2.7,8-4.4,16.1-4.4,13.4,0,20,5.3,20,17.1v27.3a32.64,32.64,0,0,0,1.1,8.8,3.55,3.55,0,0,1,.2,1c0,1.6-1.5,3-4,3.2h-.9c-2,0-3.8-.6-4.2-2.4a28.44,28.44,0,0,1-.6-5c-3.8,4.3-9.1,8.2-19,8.2-11,0-17.7-6.2-17.7-16.5,0-9.4,5.6-15.4,15.1-18,5.5-1.5,10.7-2.1,21.4-2.3Zm0,11.5c-11.7.3-17.2,1.3-21.2,3.3a10.16,10.16,0,0,0-6.1,9.9c0,5.2,4,8.7,10,8.7a18.84,18.84,0,0,0,14.7-7.1c1.9-2.4,2.6-4.3,2.6-8.1Z"/><path d="M430.25,203.2c0-2.6,1.9-3.9,4.7-3.9,2.5,0,4.5,1.3,4.5,3.9v2.2a43.22,43.22,0,0,1-.6,4.7,18.75,18.75,0,0,1,17.5-11.4,17.52,17.52,0,0,1,4,.5,3.3,3.3,0,0,1,3.2,3.6,11.14,11.14,0,0,1-.2,1.7c-.4,2.1-1.8,3.9-3.9,3.9a2.77,2.77,0,0,1-.9-.1,20.15,20.15,0,0,0-4.8-.6c-4.3.1-7.6,2.3-10.1,5.5a17.94,17.94,0,0,0-4.2,11.1v27.6c0,2.7-2,4-4.5,4-2.8,0-4.7-1.3-4.7-4Z"/><path d="M520.75,227.5c0,17.4-9.6,29.4-25.2,29.4-16.5,0-26.1-11.6-26.1-29.4,0-17.3,9.7-29,25.9-29C511.35,198.5,520.75,210.1,520.75,227.5Zm-42.1.3c0,12.7,6,21.4,16.3,21.4,10.9,0,16.6-8.5,16.6-21.8,0-12.6-5.7-21.2-15.9-21.2C484.85,206.2,478.65,214.5,478.65,227.8Z"/><path d="M561.05,221.2c2.4,0,3.8,1.7,3.8,4.5s-1.5,4.4-3.9,4.4h-27.1c-2.4,0-3.9-1.6-3.9-4.4s1.4-4.5,3.8-4.5Z"/><path d="M607.85,211.2c15.6,3.3,24.1,8.6,24.1,23.1,0,12.9-9.9,22.6-27.8,22.6-22.8,0-27.5-11.8-29.9-19.9a6.88,6.88,0,0,1-.2-1.3c0-2.2,1.7-3.7,3.8-4.2a9.85,9.85,0,0,1,1.7-.2,4.29,4.29,0,0,1,4.4,3c1.8,6.7,5.1,14.2,19.7,14.2,11.4,0,18.5-5.5,18.5-14.1,0-8.2-4.5-11.8-16.3-14.2l-8-1.7c-15-3.1-21.8-8.8-21.8-21.9,0-10.5,7.8-20.7,26.6-20.7,18,0,24.2,9.6,26.4,16.8a4,4,0,0,1,.3,1.5,4.26,4.26,0,0,1-3.7,4,8.81,8.81,0,0,1-1.7.2,4.44,4.44,0,0,1-4.4-2.9c-1.6-5.7-5.8-11.3-16.9-11.3-11.6,0-16.9,5.8-16.9,12.4,0,7.2,3.5,10.9,14.7,13.1Z"/><path d="M650.15,229.3c.2,12.3,6.3,20,17.1,20,7.2,0,11.2-3.6,13.6-8.9a3.93,3.93,0,0,1,3.6-2.5,7.79,7.79,0,0,1,2.1.4c1.7.5,3.1,1.7,3.1,3.5a3.09,3.09,0,0,1-.5,1.8c-3.2,6.6-9,13.2-22,13.2-16.4,0-25.9-11.6-25.9-28.9s9-29.4,25.3-29.4c14.6,0,22.8,11.4,23.8,24.5v.8c0,3.6-1.9,5.5-5,5.5Zm29.6-7.3c1.1,0,1.5-.4,1.5-1.3v-.5c-1.2-7.1-5.5-14.4-14.7-14.4-9.6,0-14.8,6.4-16.1,16.2Z"/><path d="M702.65,203.2c0-2.6,1.9-3.9,4.7-3.9,2.5,0,4.5,1.3,4.5,3.9v2.2a43.22,43.22,0,0,1-.6,4.7,18.75,18.75,0,0,1,17.5-11.4,17.52,17.52,0,0,1,4,.5,3.3,3.3,0,0,1,3.2,3.6,11.14,11.14,0,0,1-.2,1.7c-.4,2.1-1.8,3.9-3.9,3.9a2.77,2.77,0,0,1-.9-.1,20.15,20.15,0,0,0-4.8-.6c-4.3.1-7.6,2.3-10.1,5.5a17.94,17.94,0,0,0-4.2,11.1v27.6c0,2.7-2,4-4.5,4-2.8,0-4.7-1.3-4.7-4Z"/><path d="M767.05,198.7c13.2,0,18.6,7.2,21.1,13.5a5,5,0,0,1,.3,1.6,3.86,3.86,0,0,1-3,3.6,6.2,6.2,0,0,1-2.3.4,3.34,3.34,0,0,1-3.4-2.4c-1.9-5.1-4.9-9-12.5-9-10.4,0-16.1,8.8-16.1,21.5,0,13.1,5.6,21.4,16.2,21.4,7.8,0,10.9-3.8,12.8-9.2a3.76,3.76,0,0,1,3.7-2.7,5.22,5.22,0,0,1,2.1.4c1.8.4,3.2,1.6,3.2,3.4a4.21,4.21,0,0,1-.4,1.8c-2.7,6.9-8,14.1-21.6,14.1-16.2,0-25.3-11.9-25.3-29S750.65,198.7,767.05,198.7Zm-10.7-5.3a3.18,3.18,0,0,1-2,.8,2.34,2.34,0,0,1-1.7-.7,2.23,2.23,0,0,1-.9-1.7,3.15,3.15,0,0,1,.8-1.9l8.9-10.6a8,8,0,0,1,11.2,0l8.8,10.5a3.15,3.15,0,0,1,.8,1.9,2.77,2.77,0,0,1-2.5,2.5,3.18,3.18,0,0,1-2-.8l-10.7-9.3Z"/><path d="M848.55,227.5c0,17.4-9.6,29.4-25.2,29.4-16.51,0-26.11-11.6-26.11-29.4,0-17.3,9.7-29,25.91-29C839.15,198.5,848.55,210.1,848.55,227.5Zm-42.11.3c0,12.7,6,21.4,16.31,21.4,10.9,0,16.6-8.5,16.6-21.8,0-12.6-5.7-21.2-15.9-21.2C812.65,206.2,806.44,214.5,806.44,227.8Z"/><path d="M322.34,138.18c-8.52,0-12.12-3.72-12.12-12.84V57.66c0-9.24,3.6-13,12.12-13h28.32c17.28,0,27.24,8.28,27.24,22.68,0,11.4-4.92,18.12-15.24,21.48,12.24,2.52,18.48,10.44,18.48,23.4,0,16.32-10.68,25.92-29.16,25.92Zm27.72-54c10.32,0,16.32-5.76,16.32-15.36,0-9.36-5.64-14.16-16.56-14.16h-25c-2.28,0-3.48,1.44-3.48,3.84V84.18Zm-28.68,40.08c0,2.64,1.2,4,3.84,4h25.44c12.12,0,18.6-6,18.6-17,0-11.28-6.6-17.16-18.84-17.16h-29Z"/><path d="M400.7,55.14c-3,0-4.68-2.28-4.68-5.16s1.68-5.28,4.68-5.28h55.2c4.08,0,6.24,2.64,6.24,6.48s-1.44,5.88-4.08,9.24L409.7,122.94a72.42,72.42,0,0,1-5.28,5.28c2.52-.24,5.64-.48,7.68-.48h47.28c3,0,4.56,2.16,4.56,5s-1.68,5.4-4.8,5.4h-61c-3.84,0-6.36-2.76-6.36-6.6s1.56-6,4-9L444.5,59.94a71.18,71.18,0,0,1,5.28-5.4,65.14,65.14,0,0,1-7.56.6Z"/><path d="M511.7,97.26c2.88,0,4.56,2,4.56,5.4s-1.8,5.28-4.68,5.28H479.06c-2.88,0-4.68-1.92-4.68-5.28s1.68-5.4,4.56-5.4Z"/><path d="M543.62,123.9c0,2.76,1.8,3.84,4.44,3.84h43c3.12,0,4.8,2.16,4.8,5.16s-1.68,5.28-4.8,5.28H544.58c-8.52,0-12.24-3.72-12.24-12.84V57.66c0-9.24,3.72-13,12.24-13h45.36c3.12,0,4.8,2.16,4.8,5.16s-1.68,5.28-4.8,5.28H547.7c-2.88,0-4.08,1.32-4.08,4.2V84.18h40.92c3,0,4.68,2.16,4.68,5.16,0,2.76-1.8,5-4.68,5H543.62Z"/><path d="M689.78,91.5c0,29.52-16.08,48.6-41.76,48.6s-42-19-42-48.72c0-29.4,16.2-48.48,42-48.48S689.78,61.86,689.78,91.5Zm-71.88,0c0,23.16,11.76,38.16,30.12,38.16,18.72,0,29.88-14.76,29.88-38.88,0-22.68-11.64-37.56-29.88-37.56C629.42,53.22,617.9,68.34,617.9,91.5Z"/></svg>