<svg id="レイヤー_1" data-name="レイヤー 1" xmlns="http://www.w3.org/2000/svg" viewBox="0 0 1000 300"><title>title</title><path d="M73.1,172.1c0-7.7,3.1-10.8,10.2-10.8h17.81c22.1,0,35.1,14,35.1,38.1,0,24.9-13.2,39.8-35.1,39.8H83.3c-7.1,0-10.2-3.1-10.2-10.7Zm9.5,55c0,2.3,1.2,3.4,3.2,3.4h14.81c16.2,0,25.7-11.5,25.7-31,0-19.1-8.9-29.6-25.4-29.6h-15a3.1,3.1,0,0,0-3.31,3.3Z"/><path d="M160,167.3a6.75,6.75,0,1,1-6.7-6.7A6.66,6.66,0,0,1,160,167.3Zm-11.3,19.8c0-2.6,1.7-3.9,4.5-3.9s4.6,1.3,4.6,3.9v48.7c0,2.7-1.9,4-4.6,4s-4.5-1.3-4.5-4Z"/><path d="M194.7,182.3c13.21,0,18.61,7.3,21.11,13.6a4.43,4.43,0,0,1,.3,1.5c0,1.9-1.5,3.1-3,3.7a8.33,8.33,0,0,1-2.2.3,3.49,3.49,0,0,1-3.5-2.3c-1.91-5.1-4.91-9-12.51-9-10.4,0-16.1,8.8-16.1,21.5,0,13.1,5.6,21.4,16.2,21.4,7.8,0,10.91-3.8,12.81-9.2a3.75,3.75,0,0,1,3.7-2.7,5.22,5.22,0,0,1,2.1.4c1.8.4,3.2,1.6,3.2,3.4a4.21,4.21,0,0,1-.4,1.8c-2.7,6.9-8,14.1-21.61,14.1-16.2,0-25.3-11.9-25.3-29.1S178.3,182.3,194.7,182.3Z"/><path d="M233.4,171.7c0-2.6,1.7-4,4.5-4,2.6,0,4.5,1.4,4.5,4v12.1h12.8c2.5,0,3.7,1.6,3.7,4s-1.3,3.9-3.7,3.9H242.4v33.5c0,4.9,2.1,7,5.8,7a10.81,10.81,0,0,0,5.9-1.7,4.07,4.07,0,0,1,1.8-.5,3.71,3.71,0,0,1,3.3,2.6,5.7,5.7,0,0,1,.4,2.2,3.92,3.92,0,0,1-2.1,3.6,20.71,20.71,0,0,1-9.9,2.2c-8.2,0-14.2-4.1-14.2-14.6V191.7h-7.8c-2.4,0-3.5-1.6-3.5-3.9s1.1-4,3.6-4h7.7Z"/><path d="M279.1,167.3a6.75,6.75,0,1,1-6.7-6.7A6.66,6.66,0,0,1,279.1,167.3Zm-11.3,19.8c0-2.6,1.7-3.9,4.5-3.9s4.6,1.3,4.6,3.9v48.7c0,2.7-1.9,4-4.6,4s-4.5-1.3-4.5-4Z"/><path d="M339.9,211.4c0,17.4-9.6,29.4-25.2,29.4-16.5,0-26.1-11.6-26.1-29.4,0-17.3,9.7-29,25.9-29C330.5,182.4,339.9,194,339.9,211.4Zm-42.1.3c0,12.7,6,21.4,16.3,21.4,10.9,0,16.6-8.5,16.6-21.8,0-12.6-5.7-21.2-15.9-21.2C304,190.1,297.8,198.4,297.8,211.7Z"/><path d="M397.5,235.8c0,2.7-2,4-4.6,4s-4.6-1.3-4.6-4v-32c0-8.5-3.4-13.3-10.9-13.3-5.4,0-9.9,2.4-13.3,7.1a15.81,15.81,0,0,0-3.5,10.2v28c0,2.7-1.9,4-4.5,4-2.8,0-4.6-1.3-4.6-4V187.1c0-2.6,1.9-3.9,4.7-3.9,2.6,0,4.4,1.3,4.4,3.9v2.7c0,1.3-.3,2.3-.4,4.2,3.5-7.1,9.5-11.6,19-11.6,11.9,0,18.3,7.2,18.3,19.5Z"/><path d="M445.3,199.5c0-6.6-3.6-9.5-11.5-9.5-7.3,0-10.9,2.8-12.6,7.4a3.83,3.83,0,0,1-3.9,2.6,5.87,5.87,0,0,1-2.3-.4c-1.9-.6-3.3-2-3.3-3.8a5,5,0,0,1,.2-1.2,17.84,17.84,0,0,1,5.9-7.8c3.5-2.7,8-4.4,16.1-4.4,13.4,0,20,5.3,20,17.1v27.3a32.64,32.64,0,0,0,1.1,8.8,3.55,3.55,0,0,1,.2,1c0,1.6-1.5,3-4,3.2h-.9c-2,0-3.8-.6-4.2-2.4a28.44,28.44,0,0,1-.6-5c-3.8,4.3-9.1,8.2-19,8.2-11,0-17.7-6.2-17.7-16.5,0-9.4,5.6-15.4,15.1-18,5.5-1.5,10.7-2.1,21.4-2.3Zm0,11.5c-11.7.3-17.2,1.3-21.2,3.3a10.16,10.16,0,0,0-6.1,9.9c0,5.2,4,8.7,10,8.7a18.84,18.84,0,0,0,14.7-7.1c1.9-2.4,2.6-4.3,2.6-8.1Z"/><path d="M470.2,187.1c0-2.6,1.9-3.9,4.7-3.9,2.5,0,4.5,1.3,4.5,3.9v2.2a43.22,43.22,0,0,1-.6,4.7,18.75,18.75,0,0,1,17.5-11.4,17.52,17.52,0,0,1,4,.5,3.3,3.3,0,0,1,3.2,3.6,11.14,11.14,0,0,1-.2,1.7c-.4,2.1-1.8,3.9-3.9,3.9a2.77,2.77,0,0,1-.9-.1,20.15,20.15,0,0,0-4.8-.6c-4.3.1-7.6,2.3-10.1,5.5a17.94,17.94,0,0,0-4.2,11.1v27.6c0,2.7-2,4-4.5,4-2.8,0-4.7-1.3-4.7-4Z"/><path d="M548.2,185.9a3.83,3.83,0,0,1,3.9-2.6,11,11,0,0,1,1.8.2,4,4,0,0,1,3.3,3.7,5.55,5.55,0,0,1-.3,1.7l-23.6,58.5c-3.5,8.61-7.6,14.31-17.4,14.31a19.54,19.54,0,0,1-7.2-1.3,3.71,3.71,0,0,1-2.8-3.6,6.35,6.35,0,0,1,.5-2.3,4,4,0,0,1,3.7-2.8,4.78,4.78,0,0,1,1.9.39,13,13,0,0,0,5,1.31c4.3,0,6.4-3.81,8.2-8.41l2.8-7-20.2-49a4.53,4.53,0,0,1-.3-1.6,4.45,4.45,0,0,1,3.3-3.9,7.61,7.61,0,0,1,2.1-.3,3.82,3.82,0,0,1,3.8,2.5l12.6,33.2c1.2,3.2,2.1,6.9,3,10a102.44,102.44,0,0,1,3.3-9.8Z"/><path d="M631.5,195.1c15.6,3.3,24.1,8.6,24.1,23.1,0,12.9-9.9,22.6-27.8,22.6-22.8,0-27.5-11.8-29.9-19.9a6.88,6.88,0,0,1-.2-1.3c0-2.2,1.7-3.7,3.8-4.2a9.85,9.85,0,0,1,1.7-.2,4.29,4.29,0,0,1,4.4,3c1.8,6.7,5.1,14.2,19.7,14.2,11.4,0,18.5-5.5,18.5-14.1,0-8.2-4.5-11.8-16.3-14.2l-8-1.7c-15-3.1-21.8-8.8-21.8-21.9,0-10.5,7.8-20.7,26.6-20.7,18,0,24.2,9.6,26.4,16.8a4,4,0,0,1,.3,1.5,4.26,4.26,0,0,1-3.7,4,8.81,8.81,0,0,1-1.7.2,4.44,4.44,0,0,1-4.4-2.9c-1.6-5.7-5.8-11.3-16.9-11.3-11.6,0-16.9,5.8-16.9,12.4,0,7.2,3.5,10.9,14.7,13.1Z"/><path d="M673.8,213.2c.2,12.3,6.3,20,17.1,20,7.2,0,11.2-3.6,13.6-8.9a3.93,3.93,0,0,1,3.6-2.5,7.79,7.79,0,0,1,2.1.4c1.7.5,3.1,1.7,3.1,3.5a3.09,3.09,0,0,1-.5,1.8c-3.2,6.6-9,13.2-22,13.2-16.4,0-25.9-11.6-25.9-28.9s9-29.4,25.3-29.4c14.6,0,22.8,11.4,23.8,24.5v.8c0,3.6-1.9,5.5-5,5.5Zm29.6-7.3c1.1,0,1.5-.4,1.5-1.3v-.5c-1.2-7.1-5.5-14.4-14.7-14.4-9.6,0-14.8,6.4-16.1,16.2Z"/><path d="M758.7,199.5c0-6.6-3.6-9.5-11.5-9.5-7.3,0-10.9,2.8-12.6,7.4a3.83,3.83,0,0,1-3.9,2.6,5.87,5.87,0,0,1-2.3-.4c-1.9-.6-3.3-2-3.3-3.8a5.55,5.55,0,0,1,.19-1.2,17.94,17.94,0,0,1,5.91-7.8c3.5-2.7,8-4.4,16.1-4.4,13.4,0,20,5.3,20,17.1v27.3a32.64,32.64,0,0,0,1.1,8.8,3.55,3.55,0,0,1,.2,1c0,1.6-1.5,3-4,3.2h-.9c-2,0-3.8-.6-4.2-2.4a28.44,28.44,0,0,1-.6-5c-3.8,4.3-9.1,8.2-19,8.2-11,0-17.7-6.2-17.7-16.5,0-9.4,5.6-15.4,15.1-18,5.5-1.5,10.7-2.1,21.4-2.3Zm0,11.5c-11.7.3-17.2,1.3-21.2,3.3a10.16,10.16,0,0,0-6.1,9.9c0,5.2,4,8.7,10,8.7a18.84,18.84,0,0,0,14.7-7.1c1.9-2.4,2.6-4.3,2.6-8.1Z"/><path d="M783.6,187.1c0-2.6,1.9-3.9,4.7-3.9,2.5,0,4.5,1.3,4.5,3.9v2.2a43.22,43.22,0,0,1-.6,4.7,18.75,18.75,0,0,1,17.5-11.4,17.52,17.52,0,0,1,4,.5,3.3,3.3,0,0,1,3.2,3.6,11.14,11.14,0,0,1-.2,1.7c-.4,2.1-1.8,3.9-3.9,3.9a2.77,2.77,0,0,1-.9-.1,20.15,20.15,0,0,0-4.8-.6c-4.3.1-7.6,2.3-10.1,5.5a17.94,17.94,0,0,0-4.2,11.1v27.6c0,2.7-2,4-4.5,4-2.8,0-4.7-1.3-4.7-4Z"/><path d="M848,182.3c13.2,0,18.6,7.3,21.1,13.6a4.43,4.43,0,0,1,.3,1.5c0,1.9-1.5,3.1-3,3.7a8.33,8.33,0,0,1-2.2.3,3.49,3.49,0,0,1-3.5-2.3c-1.9-5.1-4.9-9-12.5-9-10.41,0-16.11,8.8-16.11,21.5,0,13.1,5.61,21.4,16.21,21.4,7.8,0,10.9-3.8,12.8-9.2a3.76,3.76,0,0,1,3.7-2.7,5.22,5.22,0,0,1,2.1.4c1.8.4,3.2,1.6,3.2,3.4a4.21,4.21,0,0,1-.4,1.8c-2.7,6.9-8,14.1-21.6,14.1-16.21,0-25.31-11.9-25.31-29.1S831.59,182.3,848,182.3Z"/><path d="M926.9,235.8c0,2.7-2,4-4.61,4s-4.5-1.3-4.5-4v-32c0-8.5-3.5-13.2-11-13.2-5.6,0-10,2.6-13.3,7a15.92,15.92,0,0,0-3.6,10.2v28c0,2.7-1.7,4-4.3,4-2.8,0-4.7-1.3-4.7-4V164.6c0-2.6,1.9-3.9,4.7-3.9,2.6,0,4.3,1.2,4.3,3.9v25.1a50.13,50.13,0,0,1-.6,5.1c3.3-7.1,8.8-12.4,19.3-12.4,11.91,0,18.31,7.2,18.31,19.5Z"/><path d="M326,132.49c-8.52,0-12.12-3.72-12.12-12.84V52c0-9.24,3.6-13,12.12-13h28.32c17.28,0,27.24,8.28,27.24,22.68,0,11.4-4.92,18.12-15.24,21.48,12.24,2.52,18.48,10.44,18.48,23.4,0,16.32-10.68,25.92-29.16,25.92Zm27.72-54C364,78.49,370,72.73,370,63.13,370,53.77,364.4,49,353.48,49h-25c-2.28,0-3.48,1.44-3.48,3.84V78.49ZM325,118.57c0,2.64,1.2,4,3.84,4h25.44c12.12,0,18.6-6,18.6-17,0-11.28-6.6-17.16-18.84-17.16H325Z"/><path d="M404.36,49.45c-3,0-4.68-2.28-4.68-5.16S401.36,39,404.36,39h55.2c4.08,0,6.24,2.64,6.24,6.48s-1.44,5.88-4.08,9.24l-48.36,62.52a72.42,72.42,0,0,1-5.28,5.28c2.52-.24,5.64-.48,7.68-.48H463c3,0,4.56,2.16,4.56,5s-1.68,5.4-4.8,5.4h-61c-3.84,0-6.36-2.76-6.36-6.6s1.56-6,4-9l48.72-62.64a71.18,71.18,0,0,1,5.28-5.4,65.14,65.14,0,0,1-7.56.6Z"/><path d="M515.36,91.57c2.88,0,4.56,2,4.56,5.4s-1.8,5.28-4.68,5.28H482.72c-2.88,0-4.68-1.92-4.68-5.28s1.68-5.4,4.56-5.4Z"/><path d="M547.28,118.21c0,2.76,1.8,3.84,4.44,3.84h43c3.12,0,4.8,2.16,4.8,5.16s-1.68,5.28-4.8,5.28H548.24c-8.52,0-12.24-3.72-12.24-12.84V52c0-9.24,3.72-13,12.24-13H593.6c3.12,0,4.8,2.16,4.8,5.16s-1.68,5.28-4.8,5.28H551.36c-2.88,0-4.08,1.32-4.08,4.2V78.49H588.2c3,0,4.68,2.16,4.68,5.16,0,2.76-1.8,5-4.68,5H547.28Z"/><path d="M674.72,43.21c0-3.36,2.4-4.92,5.76-4.92s5.64,1.56,5.64,4.92v82.44c0,4.68-2.4,7.56-7.2,7.56-5.16,0-7.08-2-10.08-6.84L637,74.89a273.36,273.36,0,0,1-13.56-25.44c.72,7.68,1.68,24.36,1.68,42v36.84c0,3.24-2.4,4.92-5.64,4.92s-5.76-1.68-5.76-4.92V45.49c0-4.44,2.88-7.2,7.56-7.2,5.4,0,7.44,2.16,9.72,5.76l30.24,49.08c5.52,9,12.24,21.84,15.36,28.56-.72-7.44-1.92-24.84-1.92-42.12Z"/></svg>