<svg id="レイヤー_1" data-name="レイヤー 1" xmlns="http://www.w3.org/2000/svg" viewBox="0 0 707.88 112.91"><title>title</title><path d="M249.12,78c2.16,0,3.36,1.68,3.36,4.08s-1.2,4.32-3.36,4.32h-9.48V109c2.88-1.32,5.64-2.52,8-3.72a4.48,4.48,0,0,1,1.92-.48c1.44,0,2.4.84,3.12,2.28a5.87,5.87,0,0,1,.6,2.28A3.59,3.59,0,0,1,251,112.7c-3.36,1.8-7.32,3.72-11.4,5.52V153.5c0,7.68-3.24,10.8-12.24,10.8a42.63,42.63,0,0,1-8-.72,3.78,3.78,0,0,1-3.24-4,4.08,4.08,0,0,1,.12-1.2c.36-2.28,1.68-3.36,3.24-3.36a3.32,3.32,0,0,1,1.08.12,34.13,34.13,0,0,0,6.12.6c3.6,0,4.08-.84,4.08-4.2V121.82c-3.6,1.44-7.08,2.64-10.32,3.72-.48,0-1,.12-1.32.12-1.8,0-3.12-1.08-3.84-3.12a6.6,6.6,0,0,1-.36-1.92,3.4,3.4,0,0,1,2.52-3.48c4.08-1.32,8.64-2.88,13.32-4.68v-26h-12.6c-2.16,0-3.24-1.92-3.24-4.32s1.2-4.08,3.36-4.08h12.48V58.1c0-2.28,1.8-3.48,4.56-3.48s4.32,1.2,4.32,3.48V78Zm16.44,69.48c0,5.76.72,6.36,24.6,6.36,17.4,0,21.36-1.8,23-4.68,1.56-2.64,2.28-8.28,2.52-13.92.12-3.12,1.92-4.44,4.32-4.44h.36c2.88.12,4.56,1.56,4.56,4.44v.24c-.36,7.92-1.44,15.24-4.08,19.44-3.36,5.52-8.76,7.68-31.56,7.68-30.12,0-32.88-1.8-32.88-13.56V70.7c0-7,3.24-10.2,10.56-10.2h43.68c7.44,0,10.68,3.24,10.68,10.2v32.88c0,6.84-3.24,10-10.68,10H265.56ZM269.28,69c-2.64,0-3.72.6-3.72,3.36v32.88h18.36V69Zm23.52,36.24h15.72c2.64,0,3.72-.48,3.72-3.24V72.38c0-2.76-1.08-3.36-3.72-3.36H292.8Z" transform="translate(-214.92 -53.54)"/><path d="M432.72,148.7c0,7.68-3.72,10.92-11.16,10.92H358.44c-7.44,0-11.16-3.24-11.16-10.92V71.42c0-7.8,3.72-11,11.16-11h63.12c7.44,0,11.16,3.24,11.16,11Zm-9.6-44.88V73.1c0-2.76-1.44-3.6-4.08-3.6H361c-2.64,0-4.08.84-4.08,3.6v30.72ZM356.88,146.9c0,2.76,1.44,3.6,4.08,3.6H419c2.64,0,4.08-.84,4.08-3.6V112.82H356.88Z" transform="translate(-214.92 -53.54)"/><path d="M457.8,96.86c-2.16,0-3.36-1.68-3.36-4.08s1.2-4.2,3.36-4.2h18.84V71.42c-4.92,1-9.72,1.8-14.28,2.4h-.84c-2.64,0-4.08-1.44-4.44-4V69c0-2.16,1.32-3.36,3.72-3.6,11.88-1.32,25.2-4.56,34.44-8.52a7,7,0,0,1,2.52-.6,4,4,0,0,1,3.72,2.64,5.57,5.57,0,0,1,.48,2.28c0,1.8-1.08,3.24-3.24,4-3.84,1.44-8.52,2.88-13.44,4.2v19.2H503c2.16,0,3.36,1.68,3.36,4.2s-1.2,4.08-3.36,4.08H485.28v18h6c6.6,0,9.84,2.64,9.84,9.12V151.7c0,6.6-3.24,9.24-9.84,9.24H469.44c-6.48,0-9.84-2.64-9.84-9.24V124c0-6.48,3.36-9.12,9.84-9.12h7.2v-18Zm10.8,52.44c0,2.28,1.2,3,3.48,3h16.68c2.28,0,3.48-.72,3.48-3V126c0-2.28-1.2-3-3.48-3H472.08c-2.28,0-3.48.72-3.48,3Zm37-39.72c-2,0-3.24-1.68-3.24-4.08s1.2-4.08,3.24-4.08h31.8a102.68,102.68,0,0,0,7.92-20.16c.6-2.16,1.92-3.12,3.6-3.12a6,6,0,0,1,1.44.24,3.89,3.89,0,0,1,3.48,3.84,6,6,0,0,1-.24,1.44,104,104,0,0,1-7.44,17.76h16.44c2,0,3.11,1.68,3.11,4.08s-1.07,4.08-3.11,4.08H537.48V126h22.2c2.28,0,3.36,1.56,3.36,4.2s-1.08,4.2-3.36,4.2h-22.2V162c0,2.28-1.92,3.6-4.44,3.6s-4.56-1.32-4.56-3.6v-27.6H508.2c-2.28,0-3.36-1.68-3.36-4.2s1.08-4.2,3.36-4.2h20.28V109.58Zm54.36-42c2.16,0,3.36,1.56,3.36,4.08s-1.2,4.08-3.36,4.08H508c-2.16,0-3.36-1.68-3.36-4.08s1.2-4.08,3.36-4.08h20.52v-10c0-2,1.8-3.24,4.56-3.24s4.44,1.2,4.44,3.24v10Zm-42.48,10.2a4.08,4.08,0,0,1,3.72,2.52,82.66,82.66,0,0,1,4.68,13.32,3.81,3.81,0,0,1,.24,1.56c0,2-1.32,3.36-3.36,3.84a4.92,4.92,0,0,1-1.32.12,3.71,3.71,0,0,1-3.72-3.24,76.7,76.7,0,0,0-4.2-12.84,3.36,3.36,0,0,1,2.28-5A9.41,9.41,0,0,1,517.44,77.78Z" transform="translate(-214.92 -53.54)"/><path d="M625.2,67.34H589.8c-1.8,0-2.88-1.32-2.88-3.36s1.08-3.6,2.88-3.6h35.4V56.9c0-2.4,1.2-3.36,4.08-3.36s4.08,1,4.08,3.36v3.48h29.28c7.08,0,9.84,2.64,9.84,8.76v5h10.2c1.8,0,3,1.68,3,3.6,0,2.16-1.19,3.6-3,3.6h-10.2v5c0,6.12-2.76,8.76-9.84,8.76H633.36v6.24h39.48c1.68,0,2.88,1.44,2.88,3.36s-1.08,3.6-2.88,3.6H633.36v6.36h48.36a3.19,3.19,0,0,1,3.11,3.48c0,2.16-1.19,3.72-3,3.72H578.16c-1.92,0-3-1.44-3-3.6s1-3.6,2.88-3.6H625.2v-6.36H586.92c-1.8,0-2.88-1.68-2.88-3.6s1.08-3.36,2.76-3.36h38.4V95.18H589.8c-1.8,0-2.88-1.44-2.88-3.36s1.08-3.6,2.88-3.6h35.4V81.38H578c-1.8,0-3-1.44-3-3.6s1.2-3.6,3-3.6H625.2Zm-26.4,96.12c-7.2,0-10.08-2.52-10.08-8.76V136.58c0-6.12,2.88-8.64,10.08-8.64h62c7.2,0,10.2,2.52,10.2,8.64V154.7c0,6.24-3,8.76-10.2,8.76Zm63.84-21.36v-4.44c0-2.16-1.2-2.76-3.36-2.76h-58.8c-2.28,0-3.36.6-3.36,2.76v4.44Zm-65.52,11.64c0,2.16,1.08,2.76,3.36,2.76h58.8c2.16,0,3.36-.6,3.36-2.76v-4.92H597.12Zm67.2-79.56V70.1c0-2.16-1-2.76-3.24-2.76H633.36v6.84Zm-31,14h27.72c2.28,0,3.24-.72,3.24-2.88v-4h-31Z" transform="translate(-214.92 -53.54)"/><path d="M727.32,78.26c2,0,3.24,1.56,3.24,4s-1.2,4.08-3.24,4.08h-8a77,77,0,0,0,11.4,20.16,4.47,4.47,0,0,1,1.32,3.12,3.83,3.83,0,0,1-1.2,2.76,3.18,3.18,0,0,1-2.64,1.32,4.14,4.14,0,0,1-3.36-1.92,74.5,74.5,0,0,1-7.44-17.4c.72,6.36,1.56,15.36,1.56,20.28v48.24c0,2.28-1.56,3.6-4.32,3.6s-4.32-1.32-4.32-3.6v-41a227.92,227.92,0,0,1,1.8-23.88c-2.28,12.36-7.32,25.92-12.48,34.08a4,4,0,0,1-3.36,1.92,5.27,5.27,0,0,1-2.64-.84,4.7,4.7,0,0,1-.84-6c7.2-10.68,13.68-26.4,16.32-40.8h-11.4c-2.16,0-3.36-1.8-3.36-4.08s1.2-4,3.36-4h12.6v-21c0-2.28,1.68-3.48,4.32-3.48s4.32,1.2,4.32,3.48v21Zm44.16,54.6c7.56,12,18.6,19.92,31.8,24a4.1,4.1,0,0,1,2.88,4,7,7,0,0,1-.24,1.56,4.33,4.33,0,0,1-4.09,3.12,4.22,4.22,0,0,1-1.67-.36A64.07,64.07,0,0,1,765,136.46c-5.16,13.2-15.84,22.92-32.76,28.68a7.76,7.76,0,0,1-2.4.48,3.89,3.89,0,0,1-3.72-2.52,6.1,6.1,0,0,1-.36-2,3.74,3.74,0,0,1,2.52-3.72c15.84-5.52,25.2-13.32,29.52-24.48H743.52c-6.12,0-8.88-2.4-8.88-8.28V109.94c0-6.12,2.76-8.64,8.88-8.64h18.24v-10h-9.84c-1.92,0-3.36-1.44-3.36-4.08,0-2.28,1.44-3.84,3.36-3.84h28.44c1.92,0,3.36,1.56,3.36,3.84,0,2.64-1.44,4.08-3.36,4.08H770v10h19.08c6.12,0,9,2.52,9,8.64v14.64c0,5.88-2.88,8.28-9,8.28ZM804,85.94a4.15,4.15,0,0,1,2.4,3.72,4.71,4.71,0,0,1-.48,2.16,4.24,4.24,0,0,1-3.84,2.64,5,5,0,0,1-2.4-.72c-13.56-7.2-25.2-18.6-33-28.68-.48-.6-.84-1-1.32-1s-1,.36-1.56,1.08c-7,9.84-17.28,21.6-29.16,29.16a4.63,4.63,0,0,1-2.4.72,4.2,4.2,0,0,1-3.48-2.16,5.38,5.38,0,0,1-.6-2.28,4,4,0,0,1,1.92-3.48A96.39,96.39,0,0,0,758.4,58.46,7.9,7.9,0,0,1,765.12,55a7.74,7.74,0,0,1,6.24,2.88C781.08,70.1,792.6,80.06,804,85.94Zm-44.16,39.6a98.26,98.26,0,0,0,1.68-16.68h-15c-2.28,0-3.24.6-3.24,2.88V122.9c0,2.16,1,2.64,3.24,2.64Zm26.4,0c2.28,0,3.24-.48,3.24-2.64V111.74c0-2.28-1-2.88-3.24-2.88H769.68A128.75,128.75,0,0,1,768,125.54Z" transform="translate(-214.92 -53.54)"/><path d="M864.12,132.14c-14.88.72-29.28,1.08-41.52,1.2a4.16,4.16,0,0,1-4.44-4.2c0-2.64,1.44-4.2,4-4.2,9.84,0,20.52-.12,31.68-.24,2.16-1.56,4.2-3.12,6.24-4.68a143.46,143.46,0,0,0-22.2-14.88,3.17,3.17,0,0,1-1.92-2.88A4.17,4.17,0,0,1,837,99.62a4.43,4.43,0,0,1,3.36-1.56,6.3,6.3,0,0,1,2.76.72c2.28,1.32,4.56,2.76,7,4.2a80.26,80.26,0,0,0,12.36-12.36h-31.2c-2.4,0-3.72.84-3.72,3.48v9.72c0,2.4-1.8,3.6-4.56,3.6s-4.56-1.2-4.56-3.72V92.54c0-6.72,3.24-9.6,10.44-9.6h35.4V72.38H820.68c-2,0-3.24-1.92-3.24-4.2s1.2-4,3.24-4h43.56v-6c0-2.76,1.32-4,4.32-4s4.56,1.2,4.56,4v6h46.56c2,0,3.12,1.68,3.12,4s-1.08,4.2-3.12,4.2H873.12V82.94H911c7.2,0,10.44,2.88,10.44,9.6v11.28c0,2.52-1.8,3.72-4.56,3.72s-4.56-1.2-4.56-3.6V94.1c0-2.64-1.32-3.48-3.84-3.48H872.76a112.84,112.84,0,0,1-16.32,16.68q5.22,3.6,10.08,7.56a139.33,139.33,0,0,0,17.4-16.92,5.15,5.15,0,0,1,4-2.16,5,5,0,0,1,2.52.72,4.19,4.19,0,0,1,2.28,3.48,2.89,2.89,0,0,1-.84,2.16,184.21,184.21,0,0,1-25.8,22.2c11.76-.48,23.64-1,35.4-1.8-2.64-2.64-5.16-4.92-7.56-7a3,3,0,0,1-1.08-2.28,3.46,3.46,0,0,1,1.8-3,4.67,4.67,0,0,1,2.76-.84,5.2,5.2,0,0,1,3.36,1.2,192.66,192.66,0,0,1,20.88,21.12,5.11,5.11,0,0,1,1.08,3A3.77,3.77,0,0,1,921,137.9a4.09,4.09,0,0,1-2.76,1,4.5,4.5,0,0,1-3.6-1.68c-1.92-2.28-4.2-5-6.6-7.68-11.64,1-23.16,1.68-34.8,2.28V162.5c0,2.16-1.8,3.6-4.56,3.6s-4.56-1.44-4.56-3.6Zm-10.8,9.36a4.17,4.17,0,0,1-1.08,2.64c-6.84,7.2-18.12,13.92-27.24,17.76a3.8,3.8,0,0,1-1.92.48,4.48,4.48,0,0,1-4.08-2.76,4.71,4.71,0,0,1-.48-2.16,4.33,4.33,0,0,1,2.76-4c8.52-3.6,17.4-8.88,23.76-15a4.81,4.81,0,0,1,3.36-1.44,4.94,4.94,0,0,1,3,1A4.34,4.34,0,0,1,853.32,141.5Zm36.36-5.88a5.55,5.55,0,0,1,3.72,1.68c6.12,6.24,17.28,12.84,25.2,16a4.51,4.51,0,0,1,3,4.2,4.57,4.57,0,0,1-.48,2,4.52,4.52,0,0,1-4.44,2.64,5.37,5.37,0,0,1-2.4-.48c-9.84-4.08-21.24-11.64-28.2-18.6a4.21,4.21,0,0,1-1.32-3,4.3,4.3,0,0,1,2-3.48A5.49,5.49,0,0,1,889.68,135.62Z" transform="translate(-214.92 -53.54)"/></svg>